<?xml version="1.0" standalone="no"?>
<svg xmlns:xlink="http://www.w3.org/1999/xlink" id="wave" style="transform:rotate(0deg); transition: 0.3s" viewBox="0 0 1440 240" version="1.1" xmlns="http://www.w3.org/2000/svg"><defs><linearGradient id="sw-gradient-0" x1="0" x2="0" y1="1" y2="0"><stop stop-color="rgba(237.106, 231.47, 229.66, 1)" offset="0%"/><stop stop-color="rgba(255, 255, 255, 1)" offset="100%"/></linearGradient></defs><path style="transform:translate(0, 0px); opacity:1" fill="url(#sw-gradient-0)" d="M0,192L21.8,188C43.6,184,87,176,131,156C174.5,136,218,104,262,88C305.5,72,349,72,393,88C436.4,104,480,136,524,140C567.3,144,611,120,655,92C698.2,64,742,32,785,28C829.1,24,873,48,916,48C960,48,1004,24,1047,24C1090.9,24,1135,48,1178,72C1221.8,96,1265,120,1309,116C1352.7,112,1396,80,1440,68C1483.6,56,1527,64,1571,64C1614.5,64,1658,56,1702,72C1745.5,88,1789,128,1833,140C1876.4,152,1920,136,1964,140C2007.3,144,2051,168,2095,172C2138.2,176,2182,160,2225,144C2269.1,128,2313,112,2356,108C2400,104,2444,112,2487,112C2530.9,112,2575,104,2618,96C2661.8,88,2705,80,2749,64C2792.7,48,2836,24,2880,32C2923.6,40,2967,80,3011,96C3054.5,112,3098,104,3120,100L3141.8,96L3141.8,240L3120,240C3098.2,240,3055,240,3011,240C2967.3,240,2924,240,2880,240C2836.4,240,2793,240,2749,240C2705.5,240,2662,240,2618,240C2574.5,240,2531,240,2487,240C2443.6,240,2400,240,2356,240C2312.7,240,2269,240,2225,240C2181.8,240,2138,240,2095,240C2050.9,240,2007,240,1964,240C1920,240,1876,240,1833,240C1789.1,240,1745,240,1702,240C1658.2,240,1615,240,1571,240C1527.3,240,1484,240,1440,240C1396.4,240,1353,240,1309,240C1265.5,240,1222,240,1178,240C1134.5,240,1091,240,1047,240C1003.6,240,960,240,916,240C872.7,240,829,240,785,240C741.8,240,698,240,655,240C610.9,240,567,240,524,240C480,240,436,240,393,240C349.1,240,305,240,262,240C218.2,240,175,240,131,240C87.3,240,44,240,22,240L0,240Z"/></svg>